<?xml version="1.0" standalone="no"?>
<!DOCTYPE svg PUBLIC "-//W3C//DTD SVG 20010904//EN"
 "http://www.w3.org/TR/2001/REC-SVG-20010904/DTD/svg10.dtd">
<svg version="1.0" xmlns="http://www.w3.org/2000/svg"
 width="1711.000000pt" height="1711.000000pt" viewBox="0 0 1711.000000 1711.000000"
 preserveAspectRatio="xMidYMid meet">

<g transform="translate(0.000000,1711.000000) scale(0.100000,-0.100000)"
fill="#000000" stroke="none">
<path d="M4612 15754 c-61 -31 -62 -38 -62 -409 0 -184 -2 -335 -5 -335 -3 0
-169 75 -368 166 -381 175 -408 184 -462 148 -52 -34 -55 -54 -55 -419 0 -184
-3 -335 -6 -335 -4 0 -163 68 -354 150 -204 88 -361 150 -380 150 -45 0 -85
-24 -104 -64 -15 -31 -16 -304 -16 -3388 0 -3172 1 -3355 18 -3388 20 -40 46
-54 592 -317 184 -89 430 -207 545 -263 480 -233 798 -386 920 -445 72 -35
207 -100 300 -145 94 -45 233 -113 310 -150 77 -37 282 -136 455 -220 173 -84
378 -183 455 -220 77 -37 205 -99 285 -138 80 -38 298 -144 485 -234 1384
-670 1364 -661 1403 -655 20 3 201 85 402 182 427 207 1178 570 1365 660 72
35 211 102 310 150 99 48 248 120 330 160 83 40 418 202 745 360 327 158 730
353 895 433 165 79 379 183 475 229 96 47 216 105 265 128 470 224 905 440
925 461 l25 24 3 3373 c2 2511 -1 3379 -9 3400 -16 38 -60 67 -103 67 -25 0
-145 -47 -374 -146 -185 -81 -345 -149 -354 -151 -17 -5 -18 16 -18 338 0 323
-1 346 -20 376 -24 39 -53 56 -99 55 -25 0 -150 -52 -396 -166 l-360 -165 -5
337 c-5 332 -5 338 -28 369 -33 47 -86 59 -149 34 -26 -10 -280 -128 -563
-261 -431 -203 -784 -368 -1205 -565 -38 -18 -290 -136 -560 -263 -1130 -531
-1498 -702 -1509 -702 -6 0 -138 59 -291 131 -154 72 -422 198 -595 279 -615
288 -1119 524 -1440 675 -338 159 -440 207 -955 448 -170 80 -368 173 -440
207 -148 70 -177 77 -223 54z m763 -572 c343 -161 880 -412 1460 -684 1135
-531 1433 -673 1427 -679 -7 -6 -436 -209 -549 -260 l-63 -28 -337 155 c-186
86 -831 381 -1433 657 l-1095 502 -3 295 c-1 162 0 300 2 307 3 8 48 -9 138
-51 73 -35 277 -131 453 -214z m6953 -34 l-3 -303 -50 -24 c-27 -13 -291 -134
-585 -268 -294 -135 -560 -256 -590 -270 -50 -23 -390 -179 -1015 -465 -132
-61 -262 -121 -290 -133 -27 -13 -81 -37 -120 -55 -38 -18 -103 -47 -142 -66
l-73 -33 -257 121 c-142 66 -283 131 -313 145 l-55 26 35 16 c19 8 104 48 189
88 84 40 154 73 156 73 1 0 61 27 131 61 200 95 1700 798 1929 904 28 13 271
127 540 254 270 127 496 231 503 231 10 0 12 -64 10 -302z m882 -425 l-1 -318
-336 -145 c-185 -80 -340 -146 -344 -148 -5 -2 -9 135 -9 305 l0 308 343 157
c188 86 343 157 345 157 1 1 2 -142 2 -316z m-8953 155 l333 -153 0 -307 0
-308 -22 9 c-13 5 -111 47 -218 94 -107 47 -251 109 -320 139 l-125 54 -3 312
c-2 245 0 312 10 312 7 0 162 -69 345 -152z m928 -373 c105 -48 217 -100 250
-115 33 -15 134 -61 225 -103 91 -41 201 -92 245 -112 44 -21 206 -95 360
-165 154 -70 305 -139 335 -153 135 -63 715 -328 793 -363 48 -21 83 -42 79
-45 -4 -4 -138 -68 -298 -143 l-292 -137 -303 132 c-167 72 -509 220 -759 328
-250 109 -596 258 -767 332 l-313 134 0 307 0 307 128 -58 c70 -32 213 -98
317 -146z m7192 -106 l-2 -301 -415 -180 c-228 -98 -476 -206 -550 -238 -74
-32 -370 -160 -658 -284 l-523 -226 -257 121 c-141 66 -274 128 -294 136 -21
8 -38 19 -38 23 0 7 51 31 455 215 105 48 219 101 255 117 36 17 468 214 960
440 492 225 931 427 975 448 44 20 83 35 87 33 4 -2 6 -139 5 -304z m-8993 26
l325 -140 1 -2916 0 -2916 21 -27 c11 -14 24 -26 28 -26 5 0 231 -102 502
-226 272 -125 625 -286 784 -359 160 -73 450 -206 645 -295 195 -89 486 -222
645 -295 160 -73 319 -146 355 -163 36 -16 144 -66 240 -110 96 -44 299 -136
451 -206 151 -69 285 -126 297 -126 12 0 199 87 416 194 l395 194 73 -2 73 -2
389 -192 c214 -106 399 -192 411 -192 12 0 222 92 466 204 244 112 680 311
969 443 289 132 552 253 585 268 33 15 191 87 350 160 160 73 427 196 595 272
168 77 451 206 630 288 179 81 335 157 347 168 l23 20 2 2921 3 2920 330 143
c181 79 331 143 332 143 2 0 3 -1443 3 -3207 l0 -3208 -358 -172 c-335 -162
-1260 -609 -1582 -765 -80 -39 -190 -92 -245 -118 -55 -26 -212 -102 -349
-169 -137 -66 -250 -121 -252 -121 -1 0 -145 -70 -319 -155 -175 -85 -319
-155 -320 -155 -1 0 -101 -48 -221 -106 -305 -148 -772 -374 -1074 -519 -140
-68 -376 -182 -524 -253 l-268 -130 -72 33 c-39 18 -231 110 -426 205 -195 95
-413 200 -485 235 -191 92 -1635 790 -2570 1243 -335 162 -659 318 -720 347
-60 29 -222 107 -359 174 -137 67 -250 121 -251 121 -2 0 -141 68 -310 150
-169 83 -311 150 -316 150 -5 0 -9 1352 -9 3211 0 1865 4 3209 9 3207 5 -1
155 -66 335 -143z m821 -304 l340 -147 5 -2560 c3 -1407 9 -2566 13 -2575 14
-28 -13 -15 1122 -534 220 -101 425 -194 455 -208 110 -50 1148 -525 1660
-759 289 -132 527 -242 529 -244 7 -7 -651 -325 -663 -321 -6 3 -200 91 -431
197 -231 106 -523 239 -650 297 -222 102 -490 224 -645 296 -41 19 -248 113
-460 210 -212 97 -664 304 -1005 460 l-620 284 -3 2876 c-1 1583 1 2877 5
2876 5 0 161 -67 348 -148z m9053 -2728 l-3 -2877 -1061 -486 c-583 -267
-1098 -502 -1145 -524 -46 -21 -239 -109 -429 -196 -190 -87 -534 -244 -765
-350 l-420 -192 -190 95 c-104 52 -250 123 -322 157 -73 35 -133 67 -133 70 0
4 278 135 618 290 339 156 651 298 692 318 86 39 493 226 1005 459 193 88 370
170 395 181 25 12 261 120 525 241 264 120 492 230 506 244 14 14 29 40 33 57
3 18 6 1172 6 2564 l0 2532 98 41 c53 23 205 89 337 147 132 57 243 105 248
105 4 1 6 -1294 5 -2876z m-8134 2278 c176 -76 639 -277 1028 -445 390 -168
719 -306 733 -306 25 0 89 29 611 274 l271 127 74 -33 c668 -306 638 -291 633
-318 -4 -23 -184 -1280 -184 -1287 0 -2 -125 -3 -279 -3 -268 0 -279 -1 -305
-21 -22 -17 -27 -28 -24 -58 3 -34 18 -49 263 -254 199 -166 260 -223 260
-240 -1 -12 -68 -491 -150 -1064 l-150 -1043 -115 0 c-136 0 -160 -10 -160
-66 0 -36 22 -60 193 -215 l37 -34 -69 -490 c-39 -269 -73 -504 -76 -522 l-6
-32 -77 35 c-42 20 -174 80 -292 134 -118 54 -741 339 -1385 634 l-1170 536
-3 2415 c-1 1758 1 2415 9 2415 6 0 156 -63 333 -139z m7204 -2277 l-3 -2416
-275 -125 c-151 -70 -808 -370 -1460 -669 -652 -298 -1186 -541 -1187 -540 -1
1 -36 236 -77 522 l-75 519 72 65 c159 143 160 145 160 179 0 56 -19 65 -155
71 l-122 5 -152 1060 c-116 809 -149 1062 -140 1070 6 6 120 100 251 211 132
110 246 208 254 217 20 25 16 66 -8 90 -21 21 -30 22 -306 25 -177 2 -285 7
-285 13 0 5 -41 293 -91 640 -49 348 -89 640 -87 651 2 15 85 57 352 179 l350
160 240 -112 c133 -62 293 -137 356 -167 219 -104 263 -122 287 -122 13 0 86
26 161 59 258 111 1052 455 1692 732 124 54 231 98 238 98 10 1 12 -485 10
-2415z m-3602 2217 c442 -206 447 -209 428 -219 -37 -19 -594 -272 -599 -272
-5 0 -121 52 -305 138 -47 21 -133 61 -192 87 -60 27 -108 51 -108 55 0 6 584
287 601 289 3 1 82 -35 175 -78z m-111 -1492 c30 -211 57 -396 60 -411 l5 -28
-124 0 -123 0 58 403 c32 221 59 408 59 416 1 51 16 -41 65 -380z m-349 -606
c-2 -10 -10 -60 -17 -111 -6 -51 -15 -95 -19 -97 -4 -2 -68 47 -144 110 l-136
115 160 0 c149 0 161 -1 156 -17z m434 13 c0 -2 9 -63 20 -136 11 -73 20 -139
20 -146 0 -11 -34 -14 -185 -14 -102 0 -185 3 -185 8 0 4 9 66 20 137 11 72
20 136 20 143 0 9 36 12 145 12 80 0 145 -2 145 -4z m459 0 c-90 -79 -273
-225 -277 -222 -3 3 -12 55 -22 116 l-16 110 160 0 c87 0 157 -2 155 -4z
m-250 -1454 c79 -554 146 -1022 149 -1039 l5 -33 -507 0 -507 0 6 33 c3 17 68
475 145 1017 77 542 143 995 145 1008 5 22 6 22 213 22 l207 0 144 -1008z
m175 -1234 c3 -13 7 -39 11 -60 l6 -36 -271 -246 c-242 -222 -272 -246 -288
-234 -10 7 -134 118 -275 247 -208 189 -256 238 -252 255 2 11 7 38 10 59 l6
37 524 0 525 0 4 -22z m-851 -492 c114 -103 207 -192 205 -197 -4 -12 -569
-481 -574 -477 -4 5 114 851 122 877 6 17 -6 27 247 -203z m955 -227 c35 -243
61 -443 59 -445 -4 -5 -570 464 -575 476 -3 7 437 410 448 410 3 0 34 -198 68
-441z m-318 -324 c165 -137 300 -252 300 -256 0 -7 -595 -279 -612 -279 -19 0
-618 274 -616 281 7 16 604 508 615 506 7 -1 148 -114 313 -252z"/>
<path d="M9248 3979 c-191 -23 -390 -98 -515 -193 -134 -101 -252 -257 -307
-406 -38 -100 -47 -140 -33 -146 12 -4 495 -114 503 -114 2 0 4 7 4 16 0 39
74 167 131 229 111 118 245 175 413 175 328 -1 559 -234 621 -627 l7 -43 -406
0 -406 0 2 -212 3 -213 403 -3 403 -2 -7 -38 c-19 -107 -58 -234 -95 -311 -73
-150 -213 -266 -364 -302 -67 -15 -207 -15 -275 0 -75 18 -185 73 -241 121
-86 74 -154 198 -182 336 -12 58 -17 69 -33 66 -38 -7 -479 -145 -489 -153
-28 -26 103 -330 196 -452 146 -193 373 -316 654 -357 107 -15 350 -12 451 5
335 59 600 254 767 566 211 393 218 1013 16 1434 -159 334 -427 542 -784 610
-100 19 -335 27 -437 14z"/>
<path d="M5615 3949 c-177 -23 -308 -79 -378 -162 -90 -106 -150 -217 -247
-457 -116 -288 -168 -387 -223 -421 -32 -19 -102 -42 -164 -53 l-33 -6 0 545
0 545 -260 0 -260 0 0 -1280 0 -1280 260 0 260 0 0 560 0 560 38 0 c51 0 133
-25 165 -50 68 -54 182 -263 397 -725 l158 -340 302 -3 301 -2 -7 22 c-14 47
-406 821 -468 925 -96 163 -163 243 -252 302 -42 28 -80 51 -84 51 -5 0 -21 5
-35 10 -27 10 -26 11 47 63 94 67 141 137 208 309 112 291 126 323 162 379 64
99 155 139 320 139 l88 0 0 190 0 190 -112 -1 c-62 -1 -144 -6 -183 -10z"/>
<path d="M6370 2660 l0 -1280 255 2 256 3 -1 1063 0 1062 610 0 610 0 0 215 0
215 -865 0 -865 0 0 -1280z"/>
<path d="M10892 3928 c3 -12 240 -478 368 -723 32 -60 171 -332 310 -604 l252
-494 -12 -41 c-41 -138 -109 -237 -188 -274 -54 -25 -67 -27 -230 -30 l-172
-4 2 -191 3 -191 35 -8 c69 -16 355 -22 421 -9 183 36 302 149 462 436 46 84
939 2074 954 2128 5 16 -10 17 -263 15 l-268 -3 -44 -115 c-25 -63 -100 -259
-167 -435 -261 -681 -288 -750 -294 -757 -4 -4 -65 122 -136 280 -71 158 -159
355 -196 437 -37 83 -112 249 -167 370 l-99 220 -287 3 c-228 2 -287 0 -284
-10z"/>
</g>
</svg>
